{
	"asset":{
		"generator":"Khronos glTF Blender I/O v3.6.28",
		"version":"2.0"
	},
	"extensionsUsed":[
		"KHR_materials_specular",
		"KHR_materials_ior"
	],
	"scene":0,
	"scenes":[
		{
			"name":"Scene",
			"nodes":[
				3
			]
		}
	],
	"nodes":[
		{
			"mesh":0,
			"name":"Eyebrows",
			"rotation":[
				0.6174463033676147,
				0.0531030036509037,
				0.3047856390476227,
				0.723219096660614
			],
			"translation":[
				-0.06177889555692673,
				0.6662347316741943,
				0.06284310668706894
			]
		},
		{
			"mesh":1,
			"name":"Eyes",
			"rotation":[
				-0.11063933372497559,
				-0.04589163139462471,
				0.0012669641291722655,
				0.9927997589111328
			],
			"translation":[
				-0.05528296157717705,
				0.5068992376327515,
				0.11842001974582672
			]
		},
		{
			"mesh":2,
			"name":"Pants",
			"translation":[
				0.020851604640483856,
				0.02625858597457409,
				0.006000522058457136
			]
		},
		{
			"children":[
				0,
				1,
				2
			],
			"mesh":3,
			"name":"Body",
			"translation":[
				-0.003000000026077032,
				0.5,
				0
			]
		}
	],
	"materials":[
		{
			"alphaMode":"BLEND",
			"doubleSided":true,
			"name":"Patrick_main",
			"pbrMetallicRoughness":{
				"baseColorTexture":{
					"index":0
				},
				"metallicFactor":0,
				"roughnessFactor":0.5
			}
		},
		{
			"extensions":{
				"KHR_materials_specular":{
					"specularColorFactor":[
						0,
						0,
						0
					]
				},
				"KHR_materials_ior":{
					"ior":1.4500000476837158
				}
			},
			"name":"Outline_pants&eyes",
			"pbrMetallicRoughness":{
				"baseColorFactor":[
					0,
					0,
					0,
					1
				],
				"metallicFactor":0
			}
		},
		{
			"emissiveFactor":[
				0.8470676243305206,
				0.14296093583106995,
				0.16419260948896408
			],
			"extensions":{
				"KHR_materials_specular":{
					"specularColorFactor":[
						0,
						0,
						0
					]
				},
				"KHR_materials_ior":{
					"ior":1.4500000476837158
				}
			},
			"name":"Outline_pink",
			"pbrMetallicRoughness":{
				"baseColorFactor":[
					0,
					0,
					0,
					1
				],
				"metallicFactor":0,
				"roughnessFactor":0.5
			}
		}
	],
	"meshes":[
		{
			"name":"Plane",
			"primitives":[
				{
					"attributes":{
						"POSITION":0,
						"NORMAL":1,
						"TEXCOORD_0":2
					},
					"indices":3,
					"material":0
				}
			]
		},
		{
			"name":"Roundcube.004",
			"primitives":[
				{
					"attributes":{
						"POSITION":4,
						"NORMAL":5,
						"TEXCOORD_0":6
					},
					"indices":7,
					"material":0
				},
				{
					"attributes":{
						"POSITION":8,
						"NORMAL":9,
						"TEXCOORD_0":10
					},
					"indices":11,
					"material":1
				}
			]
		},
		{
			"name":"Roundcube.002",
			"primitives":[
				{
					"attributes":{
						"POSITION":12,
						"NORMAL":13,
						"TEXCOORD_0":14
					},
					"indices":15,
					"material":0
				},
				{
					"attributes":{
						"POSITION":16,
						"NORMAL":17,
						"TEXCOORD_0":18
					},
					"indices":19,
					"material":1
				}
			]
		},
		{
			"name":"Roundcube.005",
			"primitives":[
				{
					"attributes":{
						"POSITION":20,
						"NORMAL":21,
						"TEXCOORD_0":22
					},
					"indices":23,
					"material":0
				},
				{
					"attributes":{
						"POSITION":24,
						"NORMAL":25,
						"TEXCOORD_0":26
					},
					"indices":27,
					"material":2
				}
			]
		}
	],
	"textures":[
		{
			"sampler":0,
			"source":0
		}
	],
	"images":[
		{
			"bufferView":4,
			"mimeType":"image/png",
			"name":"Patrick_texture"
		}
	],
	"accessors":[
		{
			"bufferView":0,
			"componentType":5126,
			"count":184,
			"max":[
				0.1218220517039299,
				0.011060075834393501,
				0.09873085469007492
			],
			"min":[
				-0.042265888303518295,
				-0.07555528730154037,
				-0.018060795962810516
			],
			"type":"VEC3"
		},
		{
			"bufferView":1,
			"componentType":5126,
			"count":184,
			"type":"VEC3"
		},
		{
			"bufferView":2,
			"componentType":5126,
			"count":184,
			"type":"VEC2"
		},
		{
			"bufferView":3,
			"componentType":5123,
			"count":576,
			"type":"SCALAR"
		},
		{
			"bufferView":5,
			"componentType":5126,
			"count":979,
			"max":[
				0.1771237850189209,
				0.09784028679132462,
				0.049793366342782974
			],
			"min":[
				-0.07293914258480072,
				-0.09008098393678665,
				-0.09401709586381912
			],
			"type":"VEC3"
		},
		{
			"bufferView":6,
			"componentType":5126,
			"count":979,
			"type":"VEC3"
		},
		{
			"bufferView":7,
			"componentType":5126,
			"count":979,
			"type":"VEC2"
		},
		{
			"bufferView":8,
			"componentType":5123,
			"count":4608,
			"type":"SCALAR"
		},
		{
			"bufferView":9,
			"componentType":5126,
			"count":963,
			"max":[
				0.1821107268333435,
				0.1028146892786026,
				0.05479084700345993
			],
			"min":[
				-0.07793842256069183,
				-0.09504470974206924,
				-0.09900625795125961
			],
			"type":"VEC3"
		},
		{
			"bufferView":10,
			"componentType":5126,
			"count":963,
			"type":"VEC3"
		},
		{
			"bufferView":11,
			"componentType":5126,
			"count":963,
			"type":"VEC2"
		},
		{
			"bufferView":12,
			"componentType":5123,
			"count":4512,
			"type":"SCALAR"
		},
		{
			"bufferView":13,
			"componentType":5126,
			"count":3300,
			"max":[
				0.3089113235473633,
				-0.06858382374048233,
				0.2743331789970398
			],
			"min":[
				-0.3506145775318146,
				-0.379907488822937,
				-0.38181012868881226
			],
			"type":"VEC3"
		},
		{
			"bufferView":14,
			"componentType":5126,
			"count":3300,
			"type":"VEC3"
		},
		{
			"bufferView":15,
			"componentType":5126,
			"count":3300,
			"type":"VEC2"
		},
		{
			"bufferView":16,
			"componentType":5123,
			"count":14928,
			"type":"SCALAR"
		},
		{
			"bufferView":17,
			"componentType":5126,
			"count":3300,
			"max":[
				0.3164100646972656,
				-0.061099693179130554,
				0.28182756900787354
			],
			"min":[
				-0.3581133186817169,
				-0.38356050848960876,
				-0.3892610967159271
			],
			"type":"VEC3"
		},
		{
			"bufferView":18,
			"componentType":5126,
			"count":3300,
			"type":"VEC3"
		},
		{
			"bufferView":19,
			"componentType":5126,
			"count":3300,
			"type":"VEC2"
		},
		{
			"bufferView":20,
			"componentType":5123,
			"count":14928,
			"type":"SCALAR"
		},
		{
			"bufferView":21,
			"componentType":5126,
			"count":7404,
			"max":[
				0.5071033835411072,
				0.9852265119552612,
				0.2698129117488861
			],
			"min":[
				-0.5071033835411072,
				-0.4903559684753418,
				-0.37089794874191284
			],
			"type":"VEC3"
		},
		{
			"bufferView":22,
			"componentType":5126,
			"count":7404,
			"type":"VEC3"
		},
		{
			"bufferView":23,
			"componentType":5126,
			"count":7404,
			"type":"VEC2"
		},
		{
			"bufferView":24,
			"componentType":5123,
			"count":41472,
			"type":"SCALAR"
		},
		{
			"bufferView":25,
			"componentType":5126,
			"count":7519,
			"max":[
				0.5141007900238037,
				0.9922250509262085,
				0.276812344789505
			],
			"min":[
				-0.5141007900238037,
				-0.49735385179519653,
				-0.3778958320617676
			],
			"type":"VEC3"
		},
		{
			"bufferView":26,
			"componentType":5126,
			"count":7519,
			"type":"VEC3"
		},
		{
			"bufferView":27,
			"componentType":5126,
			"count":7519,
			"type":"VEC2"
		},
		{
			"bufferView":28,
			"componentType":5123,
			"count":41472,
			"type":"SCALAR"
		}
	],
	"bufferViews":[
		{
			"buffer":0,
			"byteLength":2208,
			"byteOffset":0,
			"target":34962
		},
		{
			"buffer":0,
			"byteLength":2208,
			"byteOffset":2208,
			"target":34962
		},
		{
			"buffer":0,
			"byteLength":1472,
			"byteOffset":4416,
			"target":34962
		},
		{
			"buffer":0,
			"byteLength":1152,
			"byteOffset":5888,
			"target":34963
		},
		{
			"buffer":0,
			"byteLength":160603,
			"byteOffset":7040
		},
		{
			"buffer":0,
			"byteLength":11748,
			"byteOffset":167644,
			"target":34962
		},
		{
			"buffer":0,
			"byteLength":11748,
			"byteOffset":179392,
			"target":34962
		},
		{
			"buffer":0,
			"byteLength":7832,
			"byteOffset":191140,
			"target":34962
		},
		{
			"buffer":0,
			"byteLength":9216,
			"byteOffset":198972,
			"target":34963
		},
		{
			"buffer":0,
			"byteLength":11556,
			"byteOffset":208188,
			"target":34962
		},
		{
			"buffer":0,
			"byteLength":11556,
			"byteOffset":219744,
			"target":34962
		},
		{
			"buffer":0,
			"byteLength":7704,
			"byteOffset":231300,
			"target":34962
		},
		{
			"buffer":0,
			"byteLength":9024,
			"byteOffset":239004,
			"target":34963
		},
		{
			"buffer":0,
			"byteLength":39600,
			"byteOffset":248028,
			"target":34962
		},
		{
			"buffer":0,
			"byteLength":39600,
			"byteOffset":287628,
			"target":34962
		},
		{
			"buffer":0,
			"byteLength":26400,
			"byteOffset":327228,
			"target":34962
		},
		{
			"buffer":0,
			"byteLength":29856,
			"byteOffset":353628,
			"target":34963
		},
		{
			"buffer":0,
			"byteLength":39600,
			"byteOffset":383484,
			"target":34962
		},
		{
			"buffer":0,
			"byteLength":39600,
			"byteOffset":423084,
			"target":34962
		},
		{
			"buffer":0,
			"byteLength":26400,
			"byteOffset":462684,
			"target":34962
		},
		{
			"buffer":0,
			"byteLength":29856,
			"byteOffset":489084,
			"target":34963
		},
		{
			"buffer":0,
			"byteLength":88848,
			"byteOffset":518940,
			"target":34962
		},
		{
			"buffer":0,
			"byteLength":88848,
			"byteOffset":607788,
			"target":34962
		},
		{
			"buffer":0,
			"byteLength":59232,
			"byteOffset":696636,
			"target":34962
		},
		{
			"buffer":0,
			"byteLength":82944,
			"byteOffset":755868,
			"target":34963
		},
		{
			"buffer":0,
			"byteLength":90228,
			"byteOffset":838812,
			"target":34962
		},
		{
			"buffer":0,
			"byteLength":90228,
			"byteOffset":929040,
			"target":34962
		},
		{
			"buffer":0,
			"byteLength":60152,
			"byteOffset":1019268,
			"target":34962
		},
		{
			"buffer":0,
			"byteLength":82944,
			"byteOffset":1079420,
			"target":34963
		}
	],
	"samplers":[
		{
			"magFilter":9729,
			"minFilter":9987
		}
	],
	"buffers":[
		{
			"byteLength":1162364,
			"uri":"data:application/octet-stream;base64,"
		}
	]
}
